<?xml version="1.0" standalone="no"?>
<!DOCTYPE svg PUBLIC "-//W3C//DTD SVG 20010904//EN"
 "http://www.w3.org/TR/2001/REC-SVG-20010904/DTD/svg10.dtd">
<svg version="1.0" xmlns="http://www.w3.org/2000/svg"
 width="482.000000pt" height="482.000000pt" viewBox="0 0 482.000000 482.000000"
 preserveAspectRatio="xMidYMid meet">
<metadata>
Created by potrace 1.14, written by Peter Selinger 2001-2017
</metadata>
<g transform="translate(0.000000,482.000000) scale(0.100000,-0.100000)"
fill="#000000" stroke="none">
<path d="M1878 4801 c-31 -10 -77 -30 -101 -44 -91 -54 -186 -187 -204 -287
-4 -19 -7 -683 -7 -1475 l-1 -1440 24 -65 c39 -107 104 -186 201 -243 94 -55
119 -57 672 -57 333 0 525 4 560 11 162 34 302 174 337 339 9 41 11 417 9
1500 l-3 1445 -37 77 c-41 86 -118 170 -191 206 -103 52 -105 52 -672 51 -484
0 -535 -2 -587 -18z"/>
<path d="M3343 857 c-68 -11 -81 -24 -33 -34 17 -3 33 -10 36 -15 3 -5 6 -124
6 -264 0 -265 -3 -284 -43 -284 -11 0 -19 -4 -19 -9 0 -5 45 -10 100 -10 55 0
100 3 100 7 0 4 -13 13 -30 19 l-30 11 0 114 c0 133 14 173 72 201 33 16 40
17 72 3 43 -18 49 -44 49 -200 0 -94 -3 -111 -19 -123 -10 -7 -24 -13 -31 -13
-7 0 -13 -4 -13 -9 0 -6 45 -10 100 -10 55 0 100 3 100 7 0 4 -13 13 -30 19
l-30 11 0 135 c0 75 -4 147 -10 162 -13 34 -78 63 -130 59 -44 -4 -98 -28
-117 -53 -10 -13 -12 15 -13 137 0 115 -3 152 -12 151 -7 -1 -41 -6 -75 -12z"/>
<path d="M815 828 c-85 -30 -164 -112 -190 -200 -42 -142 1 -280 110 -355 35
-24 121 -51 150 -48 11 2 41 5 67 9 27 3 72 18 100 32 29 15 67 30 83 34 28 5
30 9 31 55 2 91 3 92 34 105 17 7 30 16 30 20 0 4 -54 7 -120 6 -121 -1 -148
-8 -87 -24 43 -11 58 -63 36 -125 -40 -115 -212 -117 -291 -2 -68 99 -66 300
4 406 45 67 154 98 231 65 41 -16 86 -69 94 -108 6 -32 19 -44 25 -25 8 22 10
157 2 157 -4 0 -12 -8 -19 -17 -12 -17 -15 -17 -52 2 -44 22 -189 30 -238 13z"/>
<path d="M2586 668 c-39 -26 -60 -32 -105 -33 -103 -2 -156 -33 -180 -104 -15
-47 3 -105 45 -140 l33 -27 -29 -12 c-19 -9 -31 -23 -35 -42 -16 -71 22 -97
150 -104 96 -6 131 -21 141 -61 8 -33 -12 -80 -43 -100 -52 -34 -176 -21 -208
22 -21 27 -18 77 5 98 17 16 18 20 6 27 -20 11 -62 -6 -75 -31 -29 -53 -1
-110 68 -140 100 -42 233 -19 284 50 27 38 33 99 12 142 -23 49 -71 70 -175
75 -47 3 -96 9 -109 14 -24 9 -24 9 -5 28 14 14 38 20 92 24 81 5 137 32 153
73 22 58 0 147 -43 177 -18 13 -14 16 52 37 71 23 72 24 50 41 -28 23 -26 23
-84 -14z m-102 -58 c27 -10 62 -71 60 -105 -2 -77 -28 -121 -75 -128 -36 -6
-64 11 -83 49 -31 66 -9 155 44 181 30 15 24 15 54 3z"/>
<path d="M1437 625 c-87 -30 -138 -99 -142 -190 -4 -118 87 -209 210 -207 118
1 205 89 205 207 0 77 -40 142 -111 180 -38 20 -118 25 -162 10z m129 -30 c38
-25 58 -83 57 -166 -1 -120 -41 -181 -118 -181 -80 0 -126 70 -122 187 2 45
10 84 22 110 33 66 103 88 161 50z"/>
<path d="M1850 631 c-8 -5 -32 -11 -52 -15 -39 -7 -53 -26 -19 -26 35 0 41
-23 43 -163 1 -143 -5 -167 -43 -167 -11 0 -19 -4 -19 -9 0 -6 46 -10 105 -10
66 0 104 3 100 9 -3 6 -12 10 -20 10 -7 0 -21 7 -29 16 -22 21 -23 222 -2 262
29 56 75 76 132 58 35 -11 44 -49 44 -184 0 -132 -6 -152 -42 -152 -10 0 -18
-4 -18 -10 0 -5 34 -9 78 -9 42 0 82 0 87 -1 42 -9 46 12 5 27 l-30 11 0 139
c0 119 -3 142 -20 170 -37 62 -160 66 -223 7 -14 -13 -28 -24 -31 -24 -3 0 -6
14 -8 32 -3 34 -14 42 -38 29z"/>
<path d="M3037 625 c-147 -50 -197 -233 -94 -342 42 -45 89 -59 184 -54 35 1
93 44 93 69 0 13 -4 12 -22 -5 -59 -54 -138 -48 -186 15 -23 30 -27 46 -29
111 -4 135 48 204 144 192 7 0 20 -15 28 -32 13 -24 22 -30 43 -27 36 4 36 34
0 61 -32 24 -109 30 -161 12z"/>
<path d="M3913 626 c-58 -15 -78 -38 -74 -83 2 -20 49 -15 60 6 6 10 8 20 6
23 -11 11 36 40 69 44 51 4 85 -27 88 -84 2 -47 -2 -53 -52 -72 -102 -38 -190
-108 -190 -151 0 -51 51 -89 110 -83 19 2 56 15 82 29 47 23 48 23 58 5 11
-21 64 -39 92 -32 20 5 53 40 45 48 -3 3 -14 1 -25 -5 -34 -18 -41 6 -43 154
0 77 -5 148 -10 157 -23 44 -134 66 -216 44z m150 -242 c-2 -37 -8 -73 -15
-81 -19 -23 -65 -43 -90 -39 -13 3 -26 5 -30 5 -3 1 -11 14 -16 30 -17 48 11
88 92 133 56 31 62 26 59 -48z"/>
</g>
</svg>
